<?xml version="1.0" standalone="no"?>
<!DOCTYPE svg PUBLIC "-//W3C//DTD SVG 20010904//EN"
 "http://www.w3.org/TR/2001/REC-SVG-20010904/DTD/svg10.dtd">
<svg version="1.0" xmlns="http://www.w3.org/2000/svg"
 width="803.000000pt" height="803.000000pt" viewBox="0 0 803.000000 803.000000"
 preserveAspectRatio="xMidYMid meet">
<metadata>
Created by potrace 1.11, written by Peter Selinger 2001-2013
</metadata>
<g transform="translate(0.000000,803.000000) scale(0.100000,-0.100000)"
fill="#000000" stroke="none">
<path d="M2038 7404 c-271 -48 -473 -232 -594 -540 -96 -246 -137 -515 -137
-904 0 -174 8 -371 18 -443 2 -18 7 -63 10 -102 4 -38 8 -83 10 -100 3 -16 7
-48 9 -70 5 -43 24 -173 31 -215 2 -14 9 -56 15 -93 12 -78 79 -414 104 -522
160 -699 457 -1576 741 -2190 13 -27 37 -81 55 -120 39 -86 197 -402 237 -476
17 -30 47 -85 68 -124 63 -117 213 -363 298 -490 192 -287 348 -481 541 -669
122 -119 195 -173 251 -186 86 -19 155 41 155 135 0 36 -13 62 -179 365 -90
163 -345 669 -414 820 -14 30 -43 93 -65 140 -260 554 -562 1315 -774 1955
-84 255 -247 818 -265 915 -2 14 -13 59 -23 100 -18 75 -73 333 -84 400 -3 19
-8 45 -10 56 -12 62 -38 239 -51 349 -4 28 -8 61 -10 75 -26 179 -26 693 0
829 2 10 6 36 9 57 4 22 8 46 11 54 2 8 6 26 9 40 17 103 76 255 126 330 43
64 101 108 153 117 241 39 606 -761 1053 -2308 53 -184 98 -342 100 -351 5
-23 6 -27 50 -188 20 -74 37 -142 39 -150 2 -8 11 -42 20 -75 9 -33 21 -78 26
-100 4 -22 19 -81 32 -132 13 -51 24 -120 26 -155 4 -142 119 -282 309 -377
172 -86 351 -111 442 -61 58 33 97 103 101 187 0 2 4 15 9 30 4 16 24 82 43
148 77 261 256 807 312 945 7 19 26 69 41 110 30 83 189 494 204 525 5 11 41
94 81 185 87 200 210 448 296 592 185 313 352 448 449 365 41 -36 44 -125 9
-310 -23 -118 -147 -521 -220 -712 -14 -38 -27 -74 -29 -80 -1 -5 -10 -27 -19
-49 -9 -21 -17 -41 -17 -45 0 -6 -53 -145 -71 -186 -4 -11 -36 -90 -69 -175
-53 -134 -83 -207 -121 -295 -5 -11 -56 -132 -115 -270 -58 -137 -117 -275
-131 -305 -14 -30 -49 -109 -78 -175 -29 -66 -66 -149 -83 -185 -16 -36 -41
-91 -56 -123 -14 -31 -37 -82 -51 -112 -14 -30 -36 -79 -49 -107 -22 -49 -114
-245 -236 -503 -205 -434 -508 -1023 -621 -1206 -55 -89 -75 -146 -73 -204 5
-181 211 -445 432 -555 162 -81 264 -71 336 33 20 29 63 90 96 137 32 47 68
103 80 125 12 22 43 81 71 130 244 444 608 1293 877 2045 143 400 331 987 387
1210 117 461 155 624 189 815 3 17 8 41 11 55 5 25 39 255 49 340 20 156 28
512 13 610 -4 25 -9 63 -12 85 -18 131 -87 285 -158 356 -97 96 -184 125 -377
123 -277 -3 -530 -138 -825 -438 -461 -471 -918 -1368 -1010 -1980 -7 -50 -11
-54 -19 -19 -4 15 -25 84 -46 153 -22 69 -82 270 -135 447 -186 633 -368 1169
-484 1428 -10 22 -40 90 -67 150 -168 381 -359 681 -555 872 -121 119 -243
195 -367 229 -75 21 -238 25 -334 8z"/>
<path d="M6166 3035 c-9 -26 -7 -32 5 -12 6 10 9 21 6 23 -2 3 -7 -2 -11 -11z"/>
</g>
</svg>
